<mxfile host="app.diagrams.net" modified="2023-06-01T16:22:47.504Z" agent="Mozilla/5.0 (Windows NT 10.0; Win64; x64; rv:109.0) Gecko/20100101 Firefox/113.0" version="21.3.6" etag="GjPP0OMfKq-tHpIDebhr" type="github">
  <diagram name="Page-1" id="zALVYvy_iIxJLLFZ3BkF">
    <mxGraphModel>
      <root>
        <mxCell id="0" />
        <mxCell id="1" parent="0" />
      </root>
    </mxGraphModel>
  </diagram>
</mxfile>
